<svg id="Layer_1" enable-background="new 0 0 256 256" height="512" viewBox="0 0 256 256" width="512" xmlns="http://www.w3.org/2000/svg"><g><g><g><path d="m55.089 26.359c-.974 11.564-13.031 13.389-13.031 13.389 10.352.487 12.932 14.059 12.932 14.059.221-9.677 13.328-14.202 13.328-14.202-9.819-.587-13.229-13.246-13.229-13.246z" fill="#d4d752"/></g></g><g><g><path d="m68.407 38.108c-8.61-.515-11.839-12.025-11.871-12.141-.191-.703-.859-1.175-1.583-1.101-.725.066-1.298.642-1.359 1.367-.86 10.215-11.32 11.963-11.761 12.033-.763.115-1.313.79-1.273 1.561.04.77.657 1.384 1.428 1.421 9.033.425 11.505 12.718 11.529 12.842.137.711.759 1.217 1.472 1.217.042 0 .084-.001.127-.005.764-.064 1.356-.693 1.374-1.459.195-8.509 12.198-12.777 12.319-12.819.676-.235 1.092-.914.995-1.623-.099-.709-.683-1.25-1.397-1.293zm-13.573 10.347c-1.357-3.13-3.711-6.908-7.591-8.878 2.933-1.405 6.413-3.914 8.207-8.274 1.551 3.071 4.202 6.881 8.339 8.724-3.01 1.64-6.928 4.406-8.955 8.428z" fill="#3a312a"/></g></g><g><g><path d="m33.379 43.339c-.689 8.179-9.217 9.47-9.217 9.47 7.322.345 9.147 9.944 9.147 9.944.156-6.844 9.427-10.046 9.427-10.046-6.945-.414-9.357-9.368-9.357-9.368z" fill="#d4d752"/></g></g><g><g><path d="m42.825 51.211c-5.769-.345-7.977-8.186-7.998-8.265-.19-.702-.852-1.162-1.582-1.102-.726.065-1.299.642-1.36 1.368-.579 6.871-7.651 8.067-7.947 8.114-.763.115-1.313.79-1.273 1.561.04.77.657 1.384 1.428 1.421 6.039.284 7.728 8.644 7.744 8.726.136.712.759 1.22 1.472 1.22.042 0 .083-.001.125-.005.765-.063 1.358-.694 1.376-1.461.13-5.709 8.336-8.633 8.417-8.662.676-.234 1.094-.913.996-1.622-.099-.708-.683-1.25-1.398-1.293zm-9.589 6.797c-.924-1.886-2.341-3.948-4.45-5.281 1.857-1.041 3.7-2.63 4.873-4.917 1.058 1.874 2.656 3.956 4.944 5.225-1.85 1.1-3.991 2.74-5.367 4.973z" fill="#3a312a"/></g></g><g><g><path d="m33.379 16.682c-.689 8.179-9.217 9.471-9.217 9.471 7.322.345 9.147 9.944 9.147 9.944.156-6.845 9.427-10.046 9.427-10.046-6.945-.415-9.357-9.369-9.357-9.369z" fill="#d4d752"/></g></g><g><g><path d="m42.825 24.554c-5.769-.345-7.977-8.186-7.998-8.265-.19-.702-.852-1.168-1.582-1.102-.726.065-1.299.642-1.36 1.368-.579 6.871-7.651 8.067-7.947 8.114-.763.115-1.313.79-1.273 1.561.04.77.657 1.384 1.428 1.421 6.039.284 7.728 8.644 7.744 8.726.136.712.759 1.22 1.472 1.22.042 0 .083-.001.125-.005.765-.063 1.358-.694 1.376-1.461.13-5.709 8.336-8.634 8.417-8.662.676-.234 1.094-.913.996-1.622-.099-.709-.683-1.25-1.398-1.293zm-9.589 6.796c-.924-1.886-2.341-3.948-4.45-5.281 1.857-1.042 3.7-2.631 4.873-4.918 1.058 1.874 2.656 3.956 4.944 5.225-1.85 1.101-3.991 2.741-5.367 4.974z" fill="#3a312a"/></g></g><g><g><path d="m231.967 72.25-96.566-55.748 53.692 67.998h.001l.002.001v-.001l42.869-12.25z" fill="#89c4db"/></g></g><g><g><path d="m232.716 70.951-96.565-55.748c-.624-.36-1.414-.227-1.885.318-.471.544-.488 1.346-.042 1.911l53.692 67.998c.285.36.721.57 1.18.57.139 0 .278-.02.412-.058l42.87-12.25c.579-.166 1.003-.661 1.077-1.259.074-.597-.217-1.181-.739-1.482zm-43.068 11.832-48.221-61.069 86.724 50.066z" fill="#3a312a"/></g></g><g><g><path d="m189.096 84.5v.001l.001-.001 42.868 99.25v-111.5z" fill="#ed6e7a"/></g></g><g><g><path d="m232.868 71.052c-.375-.283-.862-.374-1.315-.245l-42.868 12.25c-.415.119-.759.41-.943.8-.185.39-.193.841-.021 1.237l42.868 99.25c.241.558.788.905 1.376.905.101 0 .203-.01.304-.031.697-.144 1.196-.757 1.196-1.469v-111.499c0-.471-.221-.914-.597-1.198zm-2.403 105.442-39.314-91.021 39.314-11.234z" fill="#3a312a"/></g></g><g><g><path d="m189.096 84.501-53.693 92.999h.004l96.558 6.25z" fill="#fae6ca"/></g></g><g><g><path d="m233.342 183.155-42.869-99.25c-.225-.521-.724-.87-1.29-.903-.556-.021-1.102.256-1.386.748l-53.693 93c-.259.449-.267 1-.022 1.458s.71.756 1.227.79l96.558 6.25c.032.002.065.003.097.003.486 0 .944-.236 1.226-.636.302-.428.359-.98.152-1.46zm-95.432-6.996 50.993-88.323 40.713 94.259z" fill="#3a312a"/></g></g><g><g><path d="m135.401 16.502-.003-.001-53.692 67.999h.001 107.386z" fill="#ed6e7a"/></g></g><g><g><path d="m190.27 83.57-53.692-67.998c-.137-.173-.312-.315-.509-.414-.635-.318-1.407-.146-1.848.412l-53.691 68c-.356.451-.423 1.066-.173 1.584.251.517.776.846 1.35.846h107.386c.575 0 1.099-.329 1.35-.846.25-.517.184-1.133-.173-1.584zm-105.469-.57 50.598-64.08 50.598 64.08z" fill="#3a312a"/></g></g><g><g><path d="m81.707 84.5v.001l53.693 92.999 53.694-93z" fill="#89c4db"/></g></g><g><g><path d="m190.392 83.75c-.268-.464-.763-.75-1.299-.75h-107.386c-.536 0-1.031.286-1.299.75s-.268 1.036 0 1.5l53.693 93c.268.464.763.75 1.299.75s1.031-.286 1.299-.75l53.693-93c.268-.464.268-1.036 0-1.5zm-54.992 90.75-51.095-88.5h102.19z" fill="#3a312a"/></g></g><g><g><path d="m231.965 183.75-96.558-6.25v61.994l23.283-13.442 12.785-7.38 60.492-34.922z" fill="#ed6e7a"/></g></g><g><g><path d="m233.425 183.409c-.15-.644-.704-1.113-1.364-1.156l-96.558-6.25c-.412-.024-.82.119-1.123.403-.302.283-.474.68-.474 1.094v61.994c0 .536.286 1.031.75 1.299.232.134.491.201.75.201s.518-.067.75-.201l23.283-13.441c.717-.414.963-1.332.549-2.049s-1.33-.964-2.049-.549l-21.033 12.142v-57.796l90.021 5.827-54.903 31.696c-.718.414-.963 1.332-.549 2.049s1.331.963 2.049.549l59.191-34.172c.572-.33.861-.997.71-1.64z" fill="#3a312a"/></g></g><g><g><path d="m38.838 183.75h-.001l96.56 55.75v-62z" fill="#fae6ca"/></g></g><g><g><path d="m136.422 176.406c-.303-.284-.711-.432-1.123-.403l-96.559 6.25c-.66.043-1.214.512-1.365 1.156s.138 1.31.71 1.64l96.56 55.75c.232.134.491.201.75.201s.518-.067.75-.201c.464-.268.75-.763.75-1.299v-62c.002-.415-.17-.811-.473-1.094zm-2.525 60.496-90.02-51.975 90.02-5.827z" fill="#3a312a"/></g></g><g><g><path d="m135.4 177.5-53.693-92.999-42.869 99.249 96.559-6.25z" fill="#ed6e7a"/></g></g><g><g><path d="m136.699 176.75-53.693-93c-.283-.492-.829-.775-1.386-.748-.566.033-1.065.382-1.29.903l-42.868 99.25c-.207.479-.15 1.032.151 1.459.282.4.74.636 1.226.636.032 0 .065-.001.097-.003l96.464-6.247c.536 0 1.031-.286 1.299-.75s.268-1.036 0-1.5zm-95.512 5.345 40.713-94.26 50.994 88.323z" fill="#3a312a"/></g></g><g><g><path d="m81.705 84.5h.001l-42.868-12.25v111.5l42.868-99.25h.001z" fill="#fae6ca"/></g></g><g><g><path d="m83.061 83.857c-.185-.39-.528-.682-.943-.8l-42.868-12.249c-.454-.129-.94-.038-1.315.245-.376.284-.597.727-.597 1.198v111.5c0 .711.5 1.325 1.196 1.469.102.021.204.031.304.031.588 0 1.136-.348 1.377-.905l42.867-99.25c.172-.398.164-.848-.021-1.239zm-42.723 92.637v-102.255l39.314 11.234z" fill="#3a312a"/></g></g><g><g><path d="m135.397 16.5-47.361 27.344-12.747 7.359-36.452 21.047h.001l42.868 12.25 53.692-67.999z" fill="#89c4db"/></g></g><g><g><path d="m136.531 15.519c-.472-.544-1.261-.678-1.885-.318l-47.36 27.344c-.717.414-.963 1.332-.549 2.049.414.718 1.331.964 2.049.549l40.586-23.431-48.221 61.069-38.5-11.001 32.09-18.527c.717-.414.963-1.332.549-2.049s-1.331-.963-2.049-.549l-35.153 20.296c-.521.301-.812.885-.739 1.482.074.598.497 1.093 1.077 1.259l42.868 12.25c.136.039.274.058.412.058.452 0 .888-.205 1.177-.57l53.691-68c.446-.565.428-1.367-.043-1.911z" fill="#3a312a"/></g></g><g><g><path d="m215.462 64.45v10.95l2.99-.85 9.7-2.77z" fill="#6ca8bf"/></g></g><g><g><path d="m215.462 78.53v63.22l15 34.74v-102.25z" fill="#d34e5c"/></g></g><g><g><path d="m215.462 149.33v31.84l14.15.92z" fill="#decaad"/></g></g><g><g><path d="m215.462 184.19v7.36l11.47-6.62z" fill="#d34e5c"/></g></g></g></svg>